solid OpenSCAD_Model
  facet normal 1 0 0
    outer loop
      vertex 50 10.9602 56.3866
      vertex 50 2 5
      vertex 50 32.1734 35.1734
    endloop
  endfacet
  facet normal 1 -0 0
    outer loop
      vertex 50 -21.2132 24.2132
      vertex 50 2 5
      vertex 50 10.9602 56.3866
    endloop
  endfacet
  facet normal 1 0 0
    outer loop
      vertex 50 2 5
      vertex 50 -21.2132 24.2132
      vertex 50 0 3
    endloop
  endfacet
  facet normal 1 0 0
    outer loop
      vertex 50 0 3
      vertex 50 -21.2132 24.2132
      vertex 50 -1.41421 1.58579
    endloop
  endfacet
  facet normal 1 0 0
    outer loop
      vertex 50 -1.41421 1.58579
      vertex 50 -21.2132 24.2132
      vertex 50 -22.6274 22.799
    endloop
  endfacet
  facet normal 1 0 0
    outer loop
      vertex 50 15 5
      vertex 50 2 5
      vertex 50 15 3
    endloop
  endfacet
  facet normal 1 -0 0
    outer loop
      vertex 50 15 3
      vertex 50 35 0
      vertex 50 35 3
    endloop
  endfacet
  facet normal 1 0 0
    outer loop
      vertex 50 0 0
      vertex 50 2 5
      vertex 50 0 3
    endloop
  endfacet
  facet normal 1 0 0
    outer loop
      vertex 50 2 5
      vertex 50 0 0
      vertex 50 15 3
    endloop
  endfacet
  facet normal 1 0 0
    outer loop
      vertex 50 15 3
      vertex 50 0 0
      vertex 50 35 0
    endloop
  endfacet
  facet normal 0 0 1
    outer loop
      vertex 11.4782 8.11229 3
      vertex 38.5218 8.11229 3
      vertex 11.4782 26.8877 3
    endloop
  endfacet
  facet normal 0 0 1
    outer loop
      vertex 38.5218 8.11229 3
      vertex 11.4782 8.11229 3
      vertex 11.6 7.5 3
    endloop
  endfacet
  facet normal -0 0 1
    outer loop
      vertex 11.1314 26.3686 3
      vertex 11.4782 8.11229 3
      vertex 11.4782 26.8877 3
    endloop
  endfacet
  facet normal 0 0 1
    outer loop
      vertex 11.1314 26.3686 3
      vertex 11.1314 8.63137 3
      vertex 11.4782 8.11229 3
    endloop
  endfacet
  facet normal -0 0 1
    outer loop
      vertex 10.6123 26.0218 3
      vertex 11.1314 8.63137 3
      vertex 11.1314 26.3686 3
    endloop
  endfacet
  facet normal 0 0 1
    outer loop
      vertex 10.6123 26.0218 3
      vertex 10.6123 8.97821 3
      vertex 11.1314 8.63137 3
    endloop
  endfacet
  facet normal -0 0 1
    outer loop
      vertex 10 25.9 3
      vertex 10.6123 8.97821 3
      vertex 10.6123 26.0218 3
    endloop
  endfacet
  facet normal 0 0 1
    outer loop
      vertex 10 25.9 3
      vertex 10 9.1 3
      vertex 10.6123 8.97821 3
    endloop
  endfacet
  facet normal 0 0 1
    outer loop
      vertex 0 15 3
      vertex 10 25.9 3
      vertex 9.38771 26.0218 3
    endloop
  endfacet
  facet normal 0 0 1
    outer loop
      vertex 10 25.9 3
      vertex 0 15 3
      vertex 10 9.1 3
    endloop
  endfacet
  facet normal 0 0 1
    outer loop
      vertex 0 15 3
      vertex 9.38771 26.0218 3
      vertex 8.86863 26.3686 3
    endloop
  endfacet
  facet normal 0 0 1
    outer loop
      vertex 10 9.1 3
      vertex 0 15 3
      vertex 9.38771 8.97821 3
    endloop
  endfacet
  facet normal 0 0 1
    outer loop
      vertex 0 15 3
      vertex 8.86863 26.3686 3
      vertex 8.52179 26.8877 3
    endloop
  endfacet
  facet normal 0 0 1
    outer loop
      vertex 9.38771 8.97821 3
      vertex 0 15 3
      vertex 8.86863 8.63137 3
    endloop
  endfacet
  facet normal 0 0 1
    outer loop
      vertex 0 35 3
      vertex 8.52179 26.8877 3
      vertex 8.4 27.5 3
    endloop
  endfacet
  facet normal 0 0 1
    outer loop
      vertex 8.86863 8.63137 3
      vertex 0 15 3
      vertex 8.52179 8.11229 3
    endloop
  endfacet
  facet normal -0 0 1
    outer loop
      vertex 41.1314 26.3686 3
      vertex 50 15 3
      vertex 41.4782 26.8877 3
    endloop
  endfacet
  facet normal 0 0 1
    outer loop
      vertex 50 15 3
      vertex 41.4782 8.11229 3
      vertex 41.6 7.5 3
    endloop
  endfacet
  facet normal -0 0 1
    outer loop
      vertex 40.6123 26.0218 3
      vertex 50 15 3
      vertex 41.1314 26.3686 3
    endloop
  endfacet
  facet normal 0 0 1
    outer loop
      vertex 50 15 3
      vertex 41.1314 8.63137 3
      vertex 41.4782 8.11229 3
    endloop
  endfacet
  facet normal -0 0 1
    outer loop
      vertex 40 25.9 3
      vertex 50 15 3
      vertex 40.6123 26.0218 3
    endloop
  endfacet
  facet normal 0 0 1
    outer loop
      vertex 50 15 3
      vertex 40.6123 8.97821 3
      vertex 41.1314 8.63137 3
    endloop
  endfacet
  facet normal 0 0 1
    outer loop
      vertex 40 9.1 3
      vertex 50 15 3
      vertex 40 25.9 3
    endloop
  endfacet
  facet normal 0 0 1
    outer loop
      vertex 50 15 3
      vertex 40 9.1 3
      vertex 40.6123 8.97821 3
    endloop
  endfacet
  facet normal 0 0 1
    outer loop
      vertex 39.3877 26.0218 3
      vertex 40 9.1 3
      vertex 40 25.9 3
    endloop
  endfacet
  facet normal 0 0 1
    outer loop
      vertex 39.3877 26.0218 3
      vertex 39.3877 8.97821 3
      vertex 40 9.1 3
    endloop
  endfacet
  facet normal 0 0 1
    outer loop
      vertex 38.8686 26.3686 3
      vertex 39.3877 8.97821 3
      vertex 39.3877 26.0218 3
    endloop
  endfacet
  facet normal 0 0 1
    outer loop
      vertex 38.8686 26.3686 3
      vertex 38.8686 8.63137 3
      vertex 39.3877 8.97821 3
    endloop
  endfacet
  facet normal 0 0 1
    outer loop
      vertex 38.5218 26.8877 3
      vertex 38.8686 8.63137 3
      vertex 38.8686 26.3686 3
    endloop
  endfacet
  facet normal 0 0 1
    outer loop
      vertex 38.5218 26.8877 3
      vertex 38.5218 8.11229 3
      vertex 38.8686 8.63137 3
    endloop
  endfacet
  facet normal -0 0 1
    outer loop
      vertex 11.6 27.5 3
      vertex 38.5218 26.8877 3
      vertex 38.4 27.5 3
    endloop
  endfacet
  facet normal 0 0 1
    outer loop
      vertex 11.4782 26.8877 3
      vertex 38.5218 26.8877 3
      vertex 11.6 27.5 3
    endloop
  endfacet
  facet normal 0 0 1
    outer loop
      vertex 41.4782 26.8877 3
      vertex 50 35 3
      vertex 41.6 27.5 3
    endloop
  endfacet
  facet normal 0 0 1
    outer loop
      vertex 50 35 3
      vertex 41.4782 28.1123 3
      vertex 41.6 27.5 3
    endloop
  endfacet
  facet normal 0 0 1
    outer loop
      vertex 50 35 3
      vertex 41.1314 28.6314 3
      vertex 41.4782 28.1123 3
    endloop
  endfacet
  facet normal 0 0 1
    outer loop
      vertex 50 35 3
      vertex 40.6123 28.9782 3
      vertex 41.1314 28.6314 3
    endloop
  endfacet
  facet normal 0 0 1
    outer loop
      vertex 50 35 3
      vertex 40 29.1 3
      vertex 40.6123 28.9782 3
    endloop
  endfacet
  facet normal 0 0 1
    outer loop
      vertex 50 35 3
      vertex 39.3877 28.9782 3
      vertex 40 29.1 3
    endloop
  endfacet
  facet normal 0 0 1
    outer loop
      vertex 38.5218 8.11229 3
      vertex 11.6 7.5 3
      vertex 38.4 7.5 3
    endloop
  endfacet
  facet normal 0 0 1
    outer loop
      vertex 38.4 7.5 3
      vertex 11.6 7.5 3
      vertex 35 0 3
    endloop
  endfacet
  facet normal 0 0 1
    outer loop
      vertex 11.6 27.5 3
      vertex 38.4 27.5 3
      vertex 38.5218 28.1123 3
    endloop
  endfacet
  facet normal 0 0 1
    outer loop
      vertex 11.4782 28.1123 3
      vertex 38.5218 28.1123 3
      vertex 38.8686 28.6314 3
    endloop
  endfacet
  facet normal 0 0 1
    outer loop
      vertex 38.5218 26.8877 3
      vertex 11.4782 26.8877 3
      vertex 38.5218 8.11229 3
    endloop
  endfacet
  facet normal 0 0 1
    outer loop
      vertex 11.1314 28.6314 3
      vertex 38.8686 28.6314 3
      vertex 39.3877 28.9782 3
    endloop
  endfacet
  facet normal 0 0 1
    outer loop
      vertex 10.6123 28.9782 3
      vertex 39.3877 28.9782 3
      vertex 50 35 3
    endloop
  endfacet
  facet normal 0 0 1
    outer loop
      vertex 38.5218 28.1123 3
      vertex 11.4782 28.1123 3
      vertex 11.6 27.5 3
    endloop
  endfacet
  facet normal 0 0 1
    outer loop
      vertex 38.8686 28.6314 3
      vertex 11.1314 28.6314 3
      vertex 11.4782 28.1123 3
    endloop
  endfacet
  facet normal 0 0 1
    outer loop
      vertex 39.3877 28.9782 3
      vertex 10.6123 28.9782 3
      vertex 11.1314 28.6314 3
    endloop
  endfacet
  facet normal -0 0 1
    outer loop
      vertex 0 35 3
      vertex 10.6123 28.9782 3
      vertex 50 35 3
    endloop
  endfacet
  facet normal 0 0 1
    outer loop
      vertex 8.52179 26.8877 3
      vertex 0 35 3
      vertex 0 15 3
    endloop
  endfacet
  facet normal 0 0 1
    outer loop
      vertex 8.52179 28.1123 3
      vertex 0 35 3
      vertex 8.4 27.5 3
    endloop
  endfacet
  facet normal 0 0 1
    outer loop
      vertex 8.86863 28.6314 3
      vertex 0 35 3
      vertex 8.52179 28.1123 3
    endloop
  endfacet
  facet normal 0 0 1
    outer loop
      vertex 9.38771 28.9782 3
      vertex 0 35 3
      vertex 8.86863 28.6314 3
    endloop
  endfacet
  facet normal 0 0 1
    outer loop
      vertex 10 29.1 3
      vertex 0 35 3
      vertex 9.38771 28.9782 3
    endloop
  endfacet
  facet normal 0 0 1
    outer loop
      vertex 10.6123 28.9782 3
      vertex 0 35 3
      vertex 10 29.1 3
    endloop
  endfacet
  facet normal 0 0 1
    outer loop
      vertex 50 35 3
      vertex 41.4782 26.8877 3
      vertex 50 15 3
    endloop
  endfacet
  facet normal 0 0 1
    outer loop
      vertex 41.4782 6.88771 3
      vertex 50 15 3
      vertex 41.6 7.5 3
    endloop
  endfacet
  facet normal 0 0 1
    outer loop
      vertex 41.1314 6.36863 3
      vertex 50 15 3
      vertex 41.4782 6.88771 3
    endloop
  endfacet
  facet normal -0 0 1
    outer loop
      vertex 41.1314 6.36863 3
      vertex 35 0 3
      vertex 50 15 3
    endloop
  endfacet
  facet normal -0 0 1
    outer loop
      vertex 40.6123 6.02179 3
      vertex 35 0 3
      vertex 41.1314 6.36863 3
    endloop
  endfacet
  facet normal -0 0 1
    outer loop
      vertex 40 5.9 3
      vertex 35 0 3
      vertex 40.6123 6.02179 3
    endloop
  endfacet
  facet normal 0 0 1
    outer loop
      vertex 39.3877 6.02179 3
      vertex 35 0 3
      vertex 40 5.9 3
    endloop
  endfacet
  facet normal 0 0 1
    outer loop
      vertex 38.8686 6.36863 3
      vertex 35 0 3
      vertex 39.3877 6.02179 3
    endloop
  endfacet
  facet normal 0 0 1
    outer loop
      vertex 38.5218 6.88771 3
      vertex 35 0 3
      vertex 38.8686 6.36863 3
    endloop
  endfacet
  facet normal 0 0 1
    outer loop
      vertex 35 0 3
      vertex 38.5218 6.88771 3
      vertex 38.4 7.5 3
    endloop
  endfacet
  facet normal 0 0 1
    outer loop
      vertex 35 0 3
      vertex 11.6 7.5 3
      vertex 15 0 3
    endloop
  endfacet
  facet normal -0 0 1
    outer loop
      vertex 11.4782 6.88771 3
      vertex 15 0 3
      vertex 11.6 7.5 3
    endloop
  endfacet
  facet normal -0 0 1
    outer loop
      vertex 11.1314 6.36863 3
      vertex 15 0 3
      vertex 11.4782 6.88771 3
    endloop
  endfacet
  facet normal -0 0 1
    outer loop
      vertex 10.6123 6.02179 3
      vertex 15 0 3
      vertex 11.1314 6.36863 3
    endloop
  endfacet
  facet normal -0 0 1
    outer loop
      vertex 10 5.9 3
      vertex 15 0 3
      vertex 10.6123 6.02179 3
    endloop
  endfacet
  facet normal 0 0 1
    outer loop
      vertex 9.38771 6.02179 3
      vertex 15 0 3
      vertex 10 5.9 3
    endloop
  endfacet
  facet normal 0 0 1
    outer loop
      vertex 8.86863 6.36863 3
      vertex 15 0 3
      vertex 9.38771 6.02179 3
    endloop
  endfacet
  facet normal 0 0 1
    outer loop
      vertex 8.52179 8.11229 3
      vertex 0 15 3
      vertex 8.4 7.5 3
    endloop
  endfacet
  facet normal 0 0 1
    outer loop
      vertex 8.86863 6.36863 3
      vertex 0 15 3
      vertex 15 0 3
    endloop
  endfacet
  facet normal 0 0 1
    outer loop
      vertex 8.52179 6.88771 3
      vertex 0 15 3
      vertex 8.86863 6.36863 3
    endloop
  endfacet
  facet normal 0 0 1
    outer loop
      vertex 8.4 7.5 3
      vertex 0 15 3
      vertex 8.52179 6.88771 3
    endloop
  endfacet
  facet normal 0 0 -1
    outer loop
      vertex 11.4782 26.8877 0
      vertex 38.5218 26.8877 0
      vertex 11.4782 8.11229 0
    endloop
  endfacet
  facet normal 0 0 -1
    outer loop
      vertex 38.5218 26.8877 0
      vertex 11.4782 26.8877 0
      vertex 11.6 27.5 0
    endloop
  endfacet
  facet normal 0 0 -1
    outer loop
      vertex 11.1314 8.63137 0
      vertex 11.4782 26.8877 0
      vertex 11.4782 8.11229 0
    endloop
  endfacet
  facet normal 0 0 -1
    outer loop
      vertex 11.1314 8.63137 0
      vertex 11.1314 26.3686 0
      vertex 11.4782 26.8877 0
    endloop
  endfacet
  facet normal 0 0 -1
    outer loop
      vertex 10.6123 8.97821 0
      vertex 11.1314 26.3686 0
      vertex 11.1314 8.63137 0
    endloop
  endfacet
  facet normal 0 0 -1
    outer loop
      vertex 10.6123 8.97821 0
      vertex 10.6123 26.0218 0
      vertex 11.1314 26.3686 0
    endloop
  endfacet
  facet normal 0 0 -1
    outer loop
      vertex 10 9.1 0
      vertex 10.6123 26.0218 0
      vertex 10.6123 8.97821 0
    endloop
  endfacet
  facet normal 0 0 -1
    outer loop
      vertex 10 9.1 0
      vertex 10 25.9 0
      vertex 10.6123 26.0218 0
    endloop
  endfacet
  facet normal 0 0 -1
    outer loop
      vertex 9.38771 8.97821 0
      vertex 10 25.9 0
      vertex 10 9.1 0
    endloop
  endfacet
  facet normal 0 0 -1
    outer loop
      vertex 9.38771 8.97821 0
      vertex 9.38771 26.0218 0
      vertex 10 25.9 0
    endloop
  endfacet
  facet normal 0 0 -1
    outer loop
      vertex 8.86863 8.63137 0
      vertex 9.38771 26.0218 0
      vertex 9.38771 8.97821 0
    endloop
  endfacet
  facet normal 0 0 -1
    outer loop
      vertex 8.86863 8.63137 0
      vertex 8.86863 26.3686 0
      vertex 9.38771 26.0218 0
    endloop
  endfacet
  facet normal 0 0 -1
    outer loop
      vertex 8.52179 8.11229 0
      vertex 8.86863 26.3686 0
      vertex 8.86863 8.63137 0
    endloop
  endfacet
  facet normal 0 0 -1
    outer loop
      vertex 8.52179 8.11229 0
      vertex 8.52179 26.8877 0
      vertex 8.86863 26.3686 0
    endloop
  endfacet
  facet normal 0 0 -1
    outer loop
      vertex 0 0 0
      vertex 8.52179 8.11229 0
      vertex 8.4 7.5 0
    endloop
  endfacet
  facet normal -0 0 -1
    outer loop
      vertex 8.52179 8.11229 0
      vertex 0 0 0
      vertex 8.52179 26.8877 0
    endloop
  endfacet
  facet normal 0 0 -1
    outer loop
      vertex 41.4782 26.8877 0
      vertex 50 35 0
      vertex 41.4782 8.11229 0
    endloop
  endfacet
  facet normal 0 0 -1
    outer loop
      vertex 50 35 0
      vertex 41.4782 26.8877 0
      vertex 41.6 27.5 0
    endloop
  endfacet
  facet normal 0 0 -1
    outer loop
      vertex 41.1314 8.63137 0
      vertex 41.4782 26.8877 0
      vertex 41.4782 8.11229 0
    endloop
  endfacet
  facet normal 0 0 -1
    outer loop
      vertex 41.1314 8.63137 0
      vertex 41.1314 26.3686 0
      vertex 41.4782 26.8877 0
    endloop
  endfacet
  facet normal 0 0 -1
    outer loop
      vertex 40.6123 8.97821 0
      vertex 41.1314 26.3686 0
      vertex 41.1314 8.63137 0
    endloop
  endfacet
  facet normal 0 0 -1
    outer loop
      vertex 40.6123 8.97821 0
      vertex 40.6123 26.0218 0
      vertex 41.1314 26.3686 0
    endloop
  endfacet
  facet normal 0 0 -1
    outer loop
      vertex 40 9.1 0
      vertex 40.6123 26.0218 0
      vertex 40.6123 8.97821 0
    endloop
  endfacet
  facet normal 0 0 -1
    outer loop
      vertex 40 9.1 0
      vertex 40 25.9 0
      vertex 40.6123 26.0218 0
    endloop
  endfacet
  facet normal 0 0 -1
    outer loop
      vertex 39.3877 8.97821 0
      vertex 40 25.9 0
      vertex 40 9.1 0
    endloop
  endfacet
  facet normal 0 0 -1
    outer loop
      vertex 39.3877 8.97821 0
      vertex 39.3877 26.0218 0
      vertex 40 25.9 0
    endloop
  endfacet
  facet normal 0 0 -1
    outer loop
      vertex 38.8686 8.63137 0
      vertex 39.3877 26.0218 0
      vertex 39.3877 8.97821 0
    endloop
  endfacet
  facet normal 0 0 -1
    outer loop
      vertex 38.8686 8.63137 0
      vertex 38.8686 26.3686 0
      vertex 39.3877 26.0218 0
    endloop
  endfacet
  facet normal 0 0 -1
    outer loop
      vertex 38.5218 8.11229 0
      vertex 38.8686 26.3686 0
      vertex 38.8686 8.63137 0
    endloop
  endfacet
  facet normal 0 0 -1
    outer loop
      vertex 38.5218 8.11229 0
      vertex 38.5218 26.8877 0
      vertex 38.8686 26.3686 0
    endloop
  endfacet
  facet normal 0 0 -1
    outer loop
      vertex 11.6 7.5 0
      vertex 38.5218 8.11229 0
      vertex 38.4 7.5 0
    endloop
  endfacet
  facet normal 0 0 -1
    outer loop
      vertex 11.4782 8.11229 0
      vertex 38.5218 8.11229 0
      vertex 11.6 7.5 0
    endloop
  endfacet
  facet normal 0 0 -1
    outer loop
      vertex 41.4782 8.11229 0
      vertex 50 0 0
      vertex 41.6 7.5 0
    endloop
  endfacet
  facet normal 0 0 -1
    outer loop
      vertex 50 0 0
      vertex 41.4782 6.88771 0
      vertex 41.6 7.5 0
    endloop
  endfacet
  facet normal 0 0 -1
    outer loop
      vertex 50 0 0
      vertex 41.1314 6.36863 0
      vertex 41.4782 6.88771 0
    endloop
  endfacet
  facet normal 0 0 -1
    outer loop
      vertex 50 0 0
      vertex 40.6123 6.02179 0
      vertex 41.1314 6.36863 0
    endloop
  endfacet
  facet normal 0 0 -1
    outer loop
      vertex 50 0 0
      vertex 40 5.9 0
      vertex 40.6123 6.02179 0
    endloop
  endfacet
  facet normal 0 0 -1
    outer loop
      vertex 50 0 0
      vertex 39.3877 6.02179 0
      vertex 40 5.9 0
    endloop
  endfacet
  facet normal 0 0 -1
    outer loop
      vertex 38.5218 8.11229 0
      vertex 11.4782 8.11229 0
      vertex 38.5218 26.8877 0
    endloop
  endfacet
  facet normal 0 0 -1
    outer loop
      vertex 38.5218 6.88771 0
      vertex 11.6 7.5 0
      vertex 38.4 7.5 0
    endloop
  endfacet
  facet normal 0 0 -1
    outer loop
      vertex 11.4782 6.88771 0
      vertex 38.5218 6.88771 0
      vertex 38.8686 6.36863 0
    endloop
  endfacet
  facet normal 0 0 -1
    outer loop
      vertex 11.1314 6.36863 0
      vertex 38.8686 6.36863 0
      vertex 39.3877 6.02179 0
    endloop
  endfacet
  facet normal 0 0 -1
    outer loop
      vertex 10.6123 6.02179 0
      vertex 39.3877 6.02179 0
      vertex 50 0 0
    endloop
  endfacet
  facet normal 0 0 -1
    outer loop
      vertex 38.5218 6.88771 0
      vertex 11.4782 6.88771 0
      vertex 11.6 7.5 0
    endloop
  endfacet
  facet normal 0 0 -1
    outer loop
      vertex 38.8686 6.36863 0
      vertex 11.1314 6.36863 0
      vertex 11.4782 6.88771 0
    endloop
  endfacet
  facet normal 0 0 -1
    outer loop
      vertex 39.3877 6.02179 0
      vertex 10.6123 6.02179 0
      vertex 11.1314 6.36863 0
    endloop
  endfacet
  facet normal 0 0 -1
    outer loop
      vertex 0 0 0
      vertex 10.6123 6.02179 0
      vertex 50 0 0
    endloop
  endfacet
  facet normal 0 0 -1
    outer loop
      vertex 0 35 0
      vertex 8.52179 26.8877 0
      vertex 0 0 0
    endloop
  endfacet
  facet normal -0 0 -1
    outer loop
      vertex 8.52179 6.88771 0
      vertex 0 0 0
      vertex 8.4 7.5 0
    endloop
  endfacet
  facet normal -0 0 -1
    outer loop
      vertex 8.86863 6.36863 0
      vertex 0 0 0
      vertex 8.52179 6.88771 0
    endloop
  endfacet
  facet normal -0 0 -1
    outer loop
      vertex 9.38771 6.02179 0
      vertex 0 0 0
      vertex 8.86863 6.36863 0
    endloop
  endfacet
  facet normal -0 0 -1
    outer loop
      vertex 10 5.9 0
      vertex 0 0 0
      vertex 9.38771 6.02179 0
    endloop
  endfacet
  facet normal 0 0 -1
    outer loop
      vertex 10.6123 6.02179 0
      vertex 0 0 0
      vertex 10 5.9 0
    endloop
  endfacet
  facet normal 0 0 -1
    outer loop
      vertex 50 0 0
      vertex 41.4782 8.11229 0
      vertex 50 35 0
    endloop
  endfacet
  facet normal 0 0 -1
    outer loop
      vertex 41.4782 28.1123 0
      vertex 50 35 0
      vertex 41.6 27.5 0
    endloop
  endfacet
  facet normal 0 0 -1
    outer loop
      vertex 41.1314 28.6314 0
      vertex 50 35 0
      vertex 41.4782 28.1123 0
    endloop
  endfacet
  facet normal 0 0 -1
    outer loop
      vertex 40.6123 28.9782 0
      vertex 50 35 0
      vertex 41.1314 28.6314 0
    endloop
  endfacet
  facet normal 0 0 -1
    outer loop
      vertex 40 29.1 0
      vertex 50 35 0
      vertex 40.6123 28.9782 0
    endloop
  endfacet
  facet normal 0 0 -1
    outer loop
      vertex 39.3877 28.9782 0
      vertex 50 35 0
      vertex 40 29.1 0
    endloop
  endfacet
  facet normal 0 0 -1
    outer loop
      vertex 38.5218 26.8877 0
      vertex 11.6 27.5 0
      vertex 38.4 27.5 0
    endloop
  endfacet
  facet normal 0 0 -1
    outer loop
      vertex 38.4 27.5 0
      vertex 11.6 27.5 0
      vertex 38.5218 28.1123 0
    endloop
  endfacet
  facet normal 0 0 -1
    outer loop
      vertex 11.4782 28.1123 0
      vertex 38.5218 28.1123 0
      vertex 11.6 27.5 0
    endloop
  endfacet
  facet normal 0 0 -1
    outer loop
      vertex 38.5218 28.1123 0
      vertex 11.4782 28.1123 0
      vertex 38.8686 28.6314 0
    endloop
  endfacet
  facet normal 0 0 -1
    outer loop
      vertex 11.1314 28.6314 0
      vertex 38.8686 28.6314 0
      vertex 11.4782 28.1123 0
    endloop
  endfacet
  facet normal 0 0 -1
    outer loop
      vertex 38.8686 28.6314 0
      vertex 11.1314 28.6314 0
      vertex 39.3877 28.9782 0
    endloop
  endfacet
  facet normal 0 0 -1
    outer loop
      vertex 10.6123 28.9782 0
      vertex 39.3877 28.9782 0
      vertex 11.1314 28.6314 0
    endloop
  endfacet
  facet normal 0 0 -1
    outer loop
      vertex 39.3877 28.9782 0
      vertex 10.6123 28.9782 0
      vertex 50 35 0
    endloop
  endfacet
  facet normal 0 0 -1
    outer loop
      vertex 0 35 0
      vertex 10.6123 28.9782 0
      vertex 10 29.1 0
    endloop
  endfacet
  facet normal 0 0 -1
    outer loop
      vertex 8.52179 26.8877 0
      vertex 0 35 0
      vertex 8.4 27.5 0
    endloop
  endfacet
  facet normal 0 0 -1
    outer loop
      vertex 10.6123 28.9782 0
      vertex 0 35 0
      vertex 50 35 0
    endloop
  endfacet
  facet normal 0 0 -1
    outer loop
      vertex 9.38771 28.9782 0
      vertex 0 35 0
      vertex 10 29.1 0
    endloop
  endfacet
  facet normal 0 0 -1
    outer loop
      vertex 8.86863 28.6314 0
      vertex 0 35 0
      vertex 9.38771 28.9782 0
    endloop
  endfacet
  facet normal 0 0 -1
    outer loop
      vertex 8.52179 28.1123 0
      vertex 0 35 0
      vertex 8.86863 28.6314 0
    endloop
  endfacet
  facet normal 0 0 -1
    outer loop
      vertex 8.4 27.5 0
      vertex 0 35 0
      vertex 8.52179 28.1123 0
    endloop
  endfacet
  facet normal -1 0 0
    outer loop
      vertex 0 35 0
      vertex 0 15 3
      vertex 0 35 3
    endloop
  endfacet
  facet normal -1 0 0
    outer loop
      vertex 0 15 3
      vertex 0 2 5
      vertex 0 15 5
    endloop
  endfacet
  facet normal -1 -0 0
    outer loop
      vertex 0 15 3
      vertex 0 0 0
      vertex 0 2 5
    endloop
  endfacet
  facet normal -1 0 0
    outer loop
      vertex 0 0 0
      vertex 0 15 3
      vertex 0 35 0
    endloop
  endfacet
  facet normal -1 0 0
    outer loop
      vertex 0 2 5
      vertex 0 10.9602 56.3866
      vertex 0 32.1734 35.1734
    endloop
  endfacet
  facet normal -1 0 0
    outer loop
      vertex 0 0 3
      vertex 0 2 5
      vertex 0 0 0
    endloop
  endfacet
  facet normal -1 0 0
    outer loop
      vertex 0 -21.2132 24.2132
      vertex 0 2 5
      vertex 0 0 3
    endloop
  endfacet
  facet normal -1 0 0
    outer loop
      vertex 0 -21.2132 24.2132
      vertex 0 0 3
      vertex 0 -1.41421 1.58579
    endloop
  endfacet
  facet normal -1 0 0
    outer loop
      vertex 0 2 5
      vertex 0 -21.2132 24.2132
      vertex 0 10.9602 56.3866
    endloop
  endfacet
  facet normal -1 0 -0
    outer loop
      vertex 0 -21.2132 24.2132
      vertex 0 -1.41421 1.58579
      vertex 0 -22.6274 22.799
    endloop
  endfacet
  facet normal 0 1 -0
    outer loop
      vertex 50 35 0
      vertex 0 35 3
      vertex 50 35 3
    endloop
  endfacet
  facet normal 0 1 0
    outer loop
      vertex 0 35 3
      vertex 50 35 0
      vertex 0 35 0
    endloop
  endfacet
  facet normal 0 -1 0
    outer loop
      vertex 0 0 0
      vertex 2 0 3
      vertex 0 0 3
    endloop
  endfacet
  facet normal 0 -1 -0
    outer loop
      vertex 2 0 3
      vertex 0 0 0
      vertex 15 0 3
    endloop
  endfacet
  facet normal 0 -1 -0
    outer loop
      vertex 15 0 3
      vertex 0 0 0
      vertex 35 0 3
    endloop
  endfacet
  facet normal 0 -1 0
    outer loop
      vertex 50 0 0
      vertex 35 0 3
      vertex 0 0 0
    endloop
  endfacet
  facet normal 0 -1 0
    outer loop
      vertex 35 0 3
      vertex 50 0 0
      vertex 48 0 3
    endloop
  endfacet
  facet normal 0 -1 0
    outer loop
      vertex 48 0 3
      vertex 50 0 0
      vertex 50 0 3
    endloop
  endfacet
  facet normal 0 -0.707107 0.707107
    outer loop
      vertex 0 -22.6274 22.799
      vertex 2 -21.2132 24.2132
      vertex 0 -21.2132 24.2132
    endloop
  endfacet
  facet normal 0 -0.707107 0.707107
    outer loop
      vertex 2 -21.2132 24.2132
      vertex 0 -22.6274 22.799
      vertex 48 -21.2132 24.2132
    endloop
  endfacet
  facet normal 0 -0.707107 0.707107
    outer loop
      vertex 50 -22.6274 22.799
      vertex 48 -21.2132 24.2132
      vertex 0 -22.6274 22.799
    endloop
  endfacet
  facet normal 0 -0.707107 0.707107
    outer loop
      vertex 48 -21.2132 24.2132
      vertex 50 -22.6274 22.799
      vertex 50 -21.2132 24.2132
    endloop
  endfacet
  facet normal 0 0.707107 -0.707107
    outer loop
      vertex 50 -1.41421 1.58579
      vertex 48 0 3
      vertex 50 0 3
    endloop
  endfacet
  facet normal 0 0.707107 -0.707107
    outer loop
      vertex 48 0 3
      vertex 50 -1.41421 1.58579
      vertex 35 0 3
    endloop
  endfacet
  facet normal 0 0.707107 -0.707107
    outer loop
      vertex 35 0 3
      vertex 50 -1.41421 1.58579
      vertex 15 0 3
    endloop
  endfacet
  facet normal 0 0.707107 -0.707107
    outer loop
      vertex 0 -1.41421 1.58579
      vertex 15 0 3
      vertex 50 -1.41421 1.58579
    endloop
  endfacet
  facet normal 0 0.707107 -0.707107
    outer loop
      vertex 15 0 3
      vertex 0 -1.41421 1.58579
      vertex 2 0 3
    endloop
  endfacet
  facet normal 0 0.707107 -0.707107
    outer loop
      vertex 2 0 3
      vertex 0 -1.41421 1.58579
      vertex 0 0 3
    endloop
  endfacet
  facet normal 0 -0.707107 -0.707106
    outer loop
      vertex 0 -1.41421 1.58579
      vertex 50 -22.6274 22.799
      vertex 0 -22.6274 22.799
    endloop
  endfacet
  facet normal 0 -0.707107 -0.707106
    outer loop
      vertex 50 -22.6274 22.799
      vertex 0 -1.41421 1.58579
      vertex 50 -1.41421 1.58579
    endloop
  endfacet
  facet normal -0 0.707107 0.707107
    outer loop
      vertex 35 0 3
      vertex 48 -21.2132 24.2132
      vertex 48 0 3
    endloop
  endfacet
  facet normal 0 0.707107 0.707107
    outer loop
      vertex 48 -21.2132 24.2132
      vertex 35 0 3
      vertex 2 -21.2132 24.2132
    endloop
  endfacet
  facet normal -0 0.707107 0.707107
    outer loop
      vertex 15 0 3
      vertex 2 -21.2132 24.2132
      vertex 35 0 3
    endloop
  endfacet
  facet normal 0 0.707107 0.707107
    outer loop
      vertex 2 -21.2132 24.2132
      vertex 15 0 3
      vertex 2 0 3
    endloop
  endfacet
  facet normal 1 0 0
    outer loop
      vertex 2 32.1734 35.1734
      vertex 2 28.6378 34.4663
      vertex 2 30.052 33.052
    endloop
  endfacet
  facet normal 1 0 0
    outer loop
      vertex 2 10.9602 56.3866
      vertex 2 28.6378 34.4663
      vertex 2 32.1734 35.1734
    endloop
  endfacet
  facet normal 1 0 0
    outer loop
      vertex 2 -21.2132 24.2132
      vertex 2 28.6378 34.4663
      vertex 2 10.9602 56.3866
    endloop
  endfacet
  facet normal 1 0 0
    outer loop
      vertex 2 -21.2132 24.2132
      vertex 2 0 5
      vertex 2 0 5.82843
    endloop
  endfacet
  facet normal 1 0 0
    outer loop
      vertex 2 0 5
      vertex 2 -21.2132 24.2132
      vertex 2 0 3
    endloop
  endfacet
  facet normal 1 0 0
    outer loop
      vertex 2 28.6378 34.4663
      vertex 2 -21.2132 24.2132
      vertex 2 0 5.82843
    endloop
  endfacet
  facet normal 1 0 0
    outer loop
      vertex 2 0.828426 5
      vertex 2 0 5.82843
      vertex 2 0 5
    endloop
  endfacet
  facet normal 0 -0.707107 0.707107
    outer loop
      vertex 0 -21.2132 24.2132
      vertex 2 10.9602 56.3866
      vertex 0 10.9602 56.3866
    endloop
  endfacet
  facet normal 0 -0.707107 0.707107
    outer loop
      vertex 2 10.9602 56.3866
      vertex 0 -21.2132 24.2132
      vertex 2 -21.2132 24.2132
    endloop
  endfacet
  facet normal 0 0.707107 -0.707107
    outer loop
      vertex 7 30.052 33.052
      vertex 7 2 5
      vertex 2 30.052 33.052
    endloop
  endfacet
  facet normal 0 0.707107 -0.707107
    outer loop
      vertex 2 30.052 33.052
      vertex 0 32.1734 35.1734
      vertex 2 32.1734 35.1734
    endloop
  endfacet
  facet normal 0 0.707107 -0.707107
    outer loop
      vertex 0 2 5
      vertex 2 30.052 33.052
      vertex 7 2 5
    endloop
  endfacet
  facet normal 0 0.707107 -0.707107
    outer loop
      vertex 2 30.052 33.052
      vertex 0 2 5
      vertex 0 32.1734 35.1734
    endloop
  endfacet
  facet normal 0 0.707107 0.707107
    outer loop
      vertex 2 32.1734 35.1734
      vertex 0 10.9602 56.3866
      vertex 2 10.9602 56.3866
    endloop
  endfacet
  facet normal 0 0.707107 0.707107
    outer loop
      vertex 0 10.9602 56.3866
      vertex 2 32.1734 35.1734
      vertex 0 32.1734 35.1734
    endloop
  endfacet
  facet normal -1 0 0
    outer loop
      vertex 48 -21.2132 24.2132
      vertex 48 0 5
      vertex 48 0 3
    endloop
  endfacet
  facet normal -1 0 0
    outer loop
      vertex 48 0 5
      vertex 48 -21.2132 24.2132
      vertex 48 0 5.82843
    endloop
  endfacet
  facet normal -1 0 0
    outer loop
      vertex 48 0.828426 5
      vertex 48 0 5
      vertex 48 0 5.82843
    endloop
  endfacet
  facet normal -1 0 0
    outer loop
      vertex 48 28.6378 34.4663
      vertex 48 32.1734 35.1734
      vertex 48 30.052 33.052
    endloop
  endfacet
  facet normal -1 0 0
    outer loop
      vertex 48 28.6378 34.4663
      vertex 48 10.9602 56.3866
      vertex 48 32.1734 35.1734
    endloop
  endfacet
  facet normal -1 0 0
    outer loop
      vertex 48 -21.2132 24.2132
      vertex 48 28.6378 34.4663
      vertex 48 0 5.82843
    endloop
  endfacet
  facet normal -1 -0 0
    outer loop
      vertex 48 28.6378 34.4663
      vertex 48 -21.2132 24.2132
      vertex 48 10.9602 56.3866
    endloop
  endfacet
  facet normal 0 -0.707107 0.707107
    outer loop
      vertex 48 -21.2132 24.2132
      vertex 50 10.9602 56.3866
      vertex 48 10.9602 56.3866
    endloop
  endfacet
  facet normal 0 -0.707107 0.707107
    outer loop
      vertex 50 10.9602 56.3866
      vertex 48 -21.2132 24.2132
      vertex 50 -21.2132 24.2132
    endloop
  endfacet
  facet normal 0 0.707107 -0.707107
    outer loop
      vertex 50 32.1734 35.1734
      vertex 48 30.052 33.052
      vertex 48 32.1734 35.1734
    endloop
  endfacet
  facet normal 0 0.707107 -0.707107
    outer loop
      vertex 50 2 5
      vertex 48 30.052 33.052
      vertex 50 32.1734 35.1734
    endloop
  endfacet
  facet normal 0 0.707107 -0.707107
    outer loop
      vertex 43 2 5
      vertex 48 30.052 33.052
      vertex 50 2 5
    endloop
  endfacet
  facet normal 0 0.707107 -0.707107
    outer loop
      vertex 48 30.052 33.052
      vertex 43 2 5
      vertex 43 30.052 33.052
    endloop
  endfacet
  facet normal 0 0.707107 0.707107
    outer loop
      vertex 50 32.1734 35.1734
      vertex 48 10.9602 56.3866
      vertex 50 10.9602 56.3866
    endloop
  endfacet
  facet normal 0 0.707107 0.707107
    outer loop
      vertex 48 10.9602 56.3866
      vertex 50 32.1734 35.1734
      vertex 48 32.1734 35.1734
    endloop
  endfacet
  facet normal 1 0 0
    outer loop
      vertex 7 28.6378 34.4663
      vertex 7 2 5
      vertex 7 30.052 33.052
    endloop
  endfacet
  facet normal 1 -0 0
    outer loop
      vertex 7 0 5.82843
      vertex 7 2 5
      vertex 7 28.6378 34.4663
    endloop
  endfacet
  facet normal 1 0 0
    outer loop
      vertex 7 2 5
      vertex 7 0 5.82843
      vertex 7 0.828426 5
    endloop
  endfacet
  facet normal 0 -0.707108 0.707106
    outer loop
      vertex 2 0 5.82843
      vertex 7 28.6378 34.4663
      vertex 2 28.6378 34.4663
    endloop
  endfacet
  facet normal 0 -0.707108 0.707106
    outer loop
      vertex 7 28.6378 34.4663
      vertex 2 0 5.82843
      vertex 7 0 5.82843
    endloop
  endfacet
  facet normal 0 -0.707108 -0.707105
    outer loop
      vertex 2 0.828426 5
      vertex 7 0 5.82843
      vertex 2 0 5.82843
    endloop
  endfacet
  facet normal 0 -0.707108 -0.707105
    outer loop
      vertex 7 0 5.82843
      vertex 2 0.828426 5
      vertex 7 0.828426 5
    endloop
  endfacet
  facet normal -0 0.707132 0.707082
    outer loop
      vertex 2 30.052 33.052
      vertex 7 28.6378 34.4663
      vertex 7 30.052 33.052
    endloop
  endfacet
  facet normal 0 0.707132 0.707082
    outer loop
      vertex 7 28.6378 34.4663
      vertex 2 30.052 33.052
      vertex 2 28.6378 34.4663
    endloop
  endfacet
  facet normal -1 0 0
    outer loop
      vertex 43 2 5
      vertex 43 28.6378 34.4663
      vertex 43 30.052 33.052
    endloop
  endfacet
  facet normal -1 0 0
    outer loop
      vertex 43 0 5.82843
      vertex 43 2 5
      vertex 43 0.828426 5
    endloop
  endfacet
  facet normal -1 0 0
    outer loop
      vertex 43 2 5
      vertex 43 0 5.82843
      vertex 43 28.6378 34.4663
    endloop
  endfacet
  facet normal 0 -0.707108 0.707106
    outer loop
      vertex 43 0 5.82843
      vertex 48 28.6378 34.4663
      vertex 43 28.6378 34.4663
    endloop
  endfacet
  facet normal 0 -0.707108 0.707106
    outer loop
      vertex 48 28.6378 34.4663
      vertex 43 0 5.82843
      vertex 48 0 5.82843
    endloop
  endfacet
  facet normal 0 -0.707108 -0.707105
    outer loop
      vertex 43 0.828426 5
      vertex 48 0 5.82843
      vertex 43 0 5.82843
    endloop
  endfacet
  facet normal 0 -0.707108 -0.707105
    outer loop
      vertex 48 0 5.82843
      vertex 43 0.828426 5
      vertex 48 0.828426 5
    endloop
  endfacet
  facet normal -0 0.707132 0.707082
    outer loop
      vertex 43 30.052 33.052
      vertex 48 28.6378 34.4663
      vertex 48 30.052 33.052
    endloop
  endfacet
  facet normal 0 0.707132 0.707082
    outer loop
      vertex 48 28.6378 34.4663
      vertex 43 30.052 33.052
      vertex 43 28.6378 34.4663
    endloop
  endfacet
  facet normal 0 -1 0
    outer loop
      vertex 2 0 3
      vertex 15 0 5
      vertex 2 0 5
    endloop
  endfacet
  facet normal 0 -1 -0
    outer loop
      vertex 15 0 5
      vertex 2 0 3
      vertex 15 0 3
    endloop
  endfacet
  facet normal 0 0 1
    outer loop
      vertex 0 15 5
      vertex 7 2 5
      vertex 15 0 5
    endloop
  endfacet
  facet normal 0 0 1
    outer loop
      vertex 7 2 5
      vertex 0 15 5
      vertex 0 2 5
    endloop
  endfacet
  facet normal -0 0 1
    outer loop
      vertex 7 0.828426 5
      vertex 15 0 5
      vertex 7 2 5
    endloop
  endfacet
  facet normal 0 0 1
    outer loop
      vertex 2 0 5
      vertex 7 0.828426 5
      vertex 2 0.828426 5
    endloop
  endfacet
  facet normal 0 0 1
    outer loop
      vertex 7 0.828426 5
      vertex 2 0 5
      vertex 15 0 5
    endloop
  endfacet
  facet normal 0.707107 0.707107 0
    outer loop
      vertex 15 0 5
      vertex 0 15 3
      vertex 0 15 5
    endloop
  endfacet
  facet normal 0.707107 0.707107 0
    outer loop
      vertex 0 15 3
      vertex 15 0 5
      vertex 15 0 3
    endloop
  endfacet
  facet normal 0 -1 0
    outer loop
      vertex 35 0 3
      vertex 48 0 5
      vertex 35 0 5
    endloop
  endfacet
  facet normal 0 -1 -0
    outer loop
      vertex 48 0 5
      vertex 35 0 3
      vertex 48 0 3
    endloop
  endfacet
  facet normal 0 0 1
    outer loop
      vertex 50 15 5
      vertex 43 2 5
      vertex 50 2 5
    endloop
  endfacet
  facet normal 0 0 1
    outer loop
      vertex 43 2 5
      vertex 35 0 5
      vertex 43 0.828426 5
    endloop
  endfacet
  facet normal 0 0 1
    outer loop
      vertex 35 0 5
      vertex 43 2 5
      vertex 50 15 5
    endloop
  endfacet
  facet normal -0 0 1
    outer loop
      vertex 43 0.828426 5
      vertex 48 0 5
      vertex 48 0.828426 5
    endloop
  endfacet
  facet normal 0 0 1
    outer loop
      vertex 48 0 5
      vertex 43 0.828426 5
      vertex 35 0 5
    endloop
  endfacet
  facet normal -0.707107 0.707107 0
    outer loop
      vertex 35 0 3
      vertex 50 15 5
      vertex 50 15 3
    endloop
  endfacet
  facet normal -0.707107 0.707107 0
    outer loop
      vertex 50 15 5
      vertex 35 0 3
      vertex 35 0 5
    endloop
  endfacet
  facet normal -0.831498 -0.555528 0
    outer loop
      vertex 11.4782 8.11229 0
      vertex 11.1314 8.63137 3
      vertex 11.1314 8.63137 0
    endloop
  endfacet
  facet normal -0.831498 -0.555528 0
    outer loop
      vertex 11.1314 8.63137 3
      vertex 11.4782 8.11229 0
      vertex 11.4782 8.11229 3
    endloop
  endfacet
  facet normal -0.980783 -0.195103 0
    outer loop
      vertex 11.6 7.5 0
      vertex 11.4782 8.11229 3
      vertex 11.4782 8.11229 0
    endloop
  endfacet
  facet normal -0.980783 -0.195103 0
    outer loop
      vertex 11.4782 8.11229 3
      vertex 11.6 7.5 0
      vertex 11.6 7.5 3
    endloop
  endfacet
  facet normal -0.555557 -0.831478 0
    outer loop
      vertex 10.6123 8.97821 0
      vertex 11.1314 8.63137 3
      vertex 10.6123 8.97821 3
    endloop
  endfacet
  facet normal -0.555557 -0.831478 -0
    outer loop
      vertex 11.1314 8.63137 3
      vertex 10.6123 8.97821 0
      vertex 11.1314 8.63137 0
    endloop
  endfacet
  facet normal -0.831498 0.555528 0
    outer loop
      vertex 11.1314 6.36863 0
      vertex 11.4782 6.88771 3
      vertex 11.4782 6.88771 0
    endloop
  endfacet
  facet normal -0.831498 0.555528 0
    outer loop
      vertex 11.4782 6.88771 3
      vertex 11.1314 6.36863 0
      vertex 11.1314 6.36863 3
    endloop
  endfacet
  facet normal 0.195087 -0.980786 0
    outer loop
      vertex 9.38771 8.97821 0
      vertex 10 9.1 3
      vertex 9.38771 8.97821 3
    endloop
  endfacet
  facet normal 0.195087 -0.980786 0
    outer loop
      vertex 10 9.1 3
      vertex 9.38771 8.97821 0
      vertex 10 9.1 0
    endloop
  endfacet
  facet normal 0.831468 -0.555572 0
    outer loop
      vertex 8.52179 8.11229 3
      vertex 8.86863 8.63137 0
      vertex 8.86863 8.63137 3
    endloop
  endfacet
  facet normal 0.831468 -0.555572 0
    outer loop
      vertex 8.86863 8.63137 0
      vertex 8.52179 8.11229 3
      vertex 8.52179 8.11229 0
    endloop
  endfacet
  facet normal 0.980786 -0.195087 0
    outer loop
      vertex 8.4 7.5 3
      vertex 8.52179 8.11229 0
      vertex 8.52179 8.11229 3
    endloop
  endfacet
  facet normal 0.980786 -0.195087 0
    outer loop
      vertex 8.52179 8.11229 0
      vertex 8.4 7.5 3
      vertex 8.4 7.5 0
    endloop
  endfacet
  facet normal -0.195084 0.980787 0
    outer loop
      vertex 10.6123 6.02179 0
      vertex 10 5.9 3
      vertex 10.6123 6.02179 3
    endloop
  endfacet
  facet normal -0.195084 0.980787 0
    outer loop
      vertex 10 5.9 3
      vertex 10.6123 6.02179 0
      vertex 10 5.9 0
    endloop
  endfacet
  facet normal 0.195087 0.980786 -0
    outer loop
      vertex 10 5.9 0
      vertex 9.38771 6.02179 3
      vertex 10 5.9 3
    endloop
  endfacet
  facet normal 0.195087 0.980786 0
    outer loop
      vertex 9.38771 6.02179 3
      vertex 10 5.9 0
      vertex 9.38771 6.02179 0
    endloop
  endfacet
  facet normal 0.980786 0.195087 0
    outer loop
      vertex 8.52179 6.88771 3
      vertex 8.4 7.5 0
      vertex 8.4 7.5 3
    endloop
  endfacet
  facet normal 0.980786 0.195087 0
    outer loop
      vertex 8.4 7.5 0
      vertex 8.52179 6.88771 3
      vertex 8.52179 6.88771 0
    endloop
  endfacet
  facet normal -0.195084 -0.980787 0
    outer loop
      vertex 10 9.1 0
      vertex 10.6123 8.97821 3
      vertex 10 9.1 3
    endloop
  endfacet
  facet normal -0.195084 -0.980787 -0
    outer loop
      vertex 10.6123 8.97821 3
      vertex 10 9.1 0
      vertex 10.6123 8.97821 0
    endloop
  endfacet
  facet normal -0.980783 0.195103 0
    outer loop
      vertex 11.4782 6.88771 0
      vertex 11.6 7.5 3
      vertex 11.6 7.5 0
    endloop
  endfacet
  facet normal -0.980783 0.195103 0
    outer loop
      vertex 11.6 7.5 3
      vertex 11.4782 6.88771 0
      vertex 11.4782 6.88771 3
    endloop
  endfacet
  facet normal -0.555557 0.831478 0
    outer loop
      vertex 11.1314 6.36863 0
      vertex 10.6123 6.02179 3
      vertex 11.1314 6.36863 3
    endloop
  endfacet
  facet normal -0.555557 0.831478 0
    outer loop
      vertex 10.6123 6.02179 3
      vertex 11.1314 6.36863 0
      vertex 10.6123 6.02179 0
    endloop
  endfacet
  facet normal 0.831468 0.555572 0
    outer loop
      vertex 8.86863 6.36863 3
      vertex 8.52179 6.88771 0
      vertex 8.52179 6.88771 3
    endloop
  endfacet
  facet normal 0.831468 0.555572 0
    outer loop
      vertex 8.52179 6.88771 0
      vertex 8.86863 6.36863 3
      vertex 8.86863 6.36863 0
    endloop
  endfacet
  facet normal 0.555572 -0.831468 0
    outer loop
      vertex 8.86863 8.63137 0
      vertex 9.38771 8.97821 3
      vertex 8.86863 8.63137 3
    endloop
  endfacet
  facet normal 0.555572 -0.831468 0
    outer loop
      vertex 9.38771 8.97821 3
      vertex 8.86863 8.63137 0
      vertex 9.38771 8.97821 0
    endloop
  endfacet
  facet normal 0.555572 0.831468 -0
    outer loop
      vertex 9.38771 6.02179 0
      vertex 8.86863 6.36863 3
      vertex 9.38771 6.02179 3
    endloop
  endfacet
  facet normal 0.555572 0.831468 0
    outer loop
      vertex 8.86863 6.36863 3
      vertex 9.38771 6.02179 0
      vertex 8.86863 6.36863 0
    endloop
  endfacet
  facet normal -0.831508 -0.555513 0
    outer loop
      vertex 11.4782 28.1123 0
      vertex 11.1314 28.6314 3
      vertex 11.1314 28.6314 0
    endloop
  endfacet
  facet normal -0.831508 -0.555513 0
    outer loop
      vertex 11.1314 28.6314 3
      vertex 11.4782 28.1123 0
      vertex 11.4782 28.1123 3
    endloop
  endfacet
  facet normal -0.980783 -0.1951 0
    outer loop
      vertex 11.6 27.5 0
      vertex 11.4782 28.1123 3
      vertex 11.4782 28.1123 0
    endloop
  endfacet
  facet normal -0.980783 -0.1951 0
    outer loop
      vertex 11.4782 28.1123 3
      vertex 11.6 27.5 0
      vertex 11.6 27.5 3
    endloop
  endfacet
  facet normal -0.555513 -0.831508 0
    outer loop
      vertex 10.6123 28.9782 0
      vertex 11.1314 28.6314 3
      vertex 10.6123 28.9782 3
    endloop
  endfacet
  facet normal -0.555513 -0.831508 -0
    outer loop
      vertex 11.1314 28.6314 3
      vertex 10.6123 28.9782 0
      vertex 11.1314 28.6314 0
    endloop
  endfacet
  facet normal -0.831508 0.555513 0
    outer loop
      vertex 11.1314 26.3686 0
      vertex 11.4782 26.8877 3
      vertex 11.4782 26.8877 0
    endloop
  endfacet
  facet normal -0.831508 0.555513 0
    outer loop
      vertex 11.4782 26.8877 3
      vertex 11.1314 26.3686 0
      vertex 11.1314 26.3686 3
    endloop
  endfacet
  facet normal 0.195103 -0.980783 0
    outer loop
      vertex 9.38771 28.9782 0
      vertex 10 29.1 3
      vertex 9.38771 28.9782 3
    endloop
  endfacet
  facet normal 0.195103 -0.980783 0
    outer loop
      vertex 10 29.1 3
      vertex 9.38771 28.9782 0
      vertex 10 29.1 0
    endloop
  endfacet
  facet normal 0.831478 -0.555557 0
    outer loop
      vertex 8.52179 28.1123 3
      vertex 8.86863 28.6314 0
      vertex 8.86863 28.6314 3
    endloop
  endfacet
  facet normal 0.831478 -0.555557 0
    outer loop
      vertex 8.86863 28.6314 0
      vertex 8.52179 28.1123 3
      vertex 8.52179 28.1123 0
    endloop
  endfacet
  facet normal 0.980787 -0.195084 0
    outer loop
      vertex 8.4 27.5 3
      vertex 8.52179 28.1123 0
      vertex 8.52179 28.1123 3
    endloop
  endfacet
  facet normal 0.980787 -0.195084 0
    outer loop
      vertex 8.52179 28.1123 0
      vertex 8.4 27.5 3
      vertex 8.4 27.5 0
    endloop
  endfacet
  facet normal -0.1951 0.980783 0
    outer loop
      vertex 10.6123 26.0218 0
      vertex 10 25.9 3
      vertex 10.6123 26.0218 3
    endloop
  endfacet
  facet normal -0.1951 0.980783 0
    outer loop
      vertex 10 25.9 3
      vertex 10.6123 26.0218 0
      vertex 10 25.9 0
    endloop
  endfacet
  facet normal 0.195103 0.980783 -0
    outer loop
      vertex 10 25.9 0
      vertex 9.38771 26.0218 3
      vertex 10 25.9 3
    endloop
  endfacet
  facet normal 0.195103 0.980783 0
    outer loop
      vertex 9.38771 26.0218 3
      vertex 10 25.9 0
      vertex 9.38771 26.0218 0
    endloop
  endfacet
  facet normal 0.980787 0.195084 0
    outer loop
      vertex 8.52179 26.8877 3
      vertex 8.4 27.5 0
      vertex 8.4 27.5 3
    endloop
  endfacet
  facet normal 0.980787 0.195084 0
    outer loop
      vertex 8.4 27.5 0
      vertex 8.52179 26.8877 3
      vertex 8.52179 26.8877 0
    endloop
  endfacet
  facet normal -0.1951 -0.980783 0
    outer loop
      vertex 10 29.1 0
      vertex 10.6123 28.9782 3
      vertex 10 29.1 3
    endloop
  endfacet
  facet normal -0.1951 -0.980783 -0
    outer loop
      vertex 10.6123 28.9782 3
      vertex 10 29.1 0
      vertex 10.6123 28.9782 0
    endloop
  endfacet
  facet normal -0.980783 0.1951 0
    outer loop
      vertex 11.4782 26.8877 0
      vertex 11.6 27.5 3
      vertex 11.6 27.5 0
    endloop
  endfacet
  facet normal -0.980783 0.1951 0
    outer loop
      vertex 11.6 27.5 3
      vertex 11.4782 26.8877 0
      vertex 11.4782 26.8877 3
    endloop
  endfacet
  facet normal -0.555513 0.831508 0
    outer loop
      vertex 11.1314 26.3686 0
      vertex 10.6123 26.0218 3
      vertex 11.1314 26.3686 3
    endloop
  endfacet
  facet normal -0.555513 0.831508 0
    outer loop
      vertex 10.6123 26.0218 3
      vertex 11.1314 26.3686 0
      vertex 10.6123 26.0218 0
    endloop
  endfacet
  facet normal 0.831478 0.555557 0
    outer loop
      vertex 8.86863 26.3686 3
      vertex 8.52179 26.8877 0
      vertex 8.52179 26.8877 3
    endloop
  endfacet
  facet normal 0.831478 0.555557 0
    outer loop
      vertex 8.52179 26.8877 0
      vertex 8.86863 26.3686 3
      vertex 8.86863 26.3686 0
    endloop
  endfacet
  facet normal 0.555528 -0.831498 0
    outer loop
      vertex 8.86863 28.6314 0
      vertex 9.38771 28.9782 3
      vertex 8.86863 28.6314 3
    endloop
  endfacet
  facet normal 0.555528 -0.831498 0
    outer loop
      vertex 9.38771 28.9782 3
      vertex 8.86863 28.6314 0
      vertex 9.38771 28.9782 0
    endloop
  endfacet
  facet normal 0.555528 0.831498 -0
    outer loop
      vertex 9.38771 26.0218 0
      vertex 8.86863 26.3686 3
      vertex 9.38771 26.0218 3
    endloop
  endfacet
  facet normal 0.555528 0.831498 0
    outer loop
      vertex 8.86863 26.3686 3
      vertex 9.38771 26.0218 0
      vertex 8.86863 26.3686 0
    endloop
  endfacet
  facet normal 0.980783 -0.195103 0
    outer loop
      vertex 38.4 7.5 3
      vertex 38.5218 8.11229 0
      vertex 38.5218 8.11229 3
    endloop
  endfacet
  facet normal 0.980783 -0.195103 0
    outer loop
      vertex 38.5218 8.11229 0
      vertex 38.4 7.5 3
      vertex 38.4 7.5 0
    endloop
  endfacet
  facet normal -0.980783 -0.195103 0
    outer loop
      vertex 41.6 7.5 0
      vertex 41.4782 8.11229 3
      vertex 41.4782 8.11229 0
    endloop
  endfacet
  facet normal -0.980783 -0.195103 0
    outer loop
      vertex 41.4782 8.11229 3
      vertex 41.6 7.5 0
      vertex 41.6 7.5 3
    endloop
  endfacet
  facet normal 0.555557 -0.831478 0
    outer loop
      vertex 38.8686 8.63137 0
      vertex 39.3877 8.97821 3
      vertex 38.8686 8.63137 3
    endloop
  endfacet
  facet normal 0.555557 -0.831478 0
    outer loop
      vertex 39.3877 8.97821 3
      vertex 38.8686 8.63137 0
      vertex 39.3877 8.97821 0
    endloop
  endfacet
  facet normal -0.195084 -0.980787 0
    outer loop
      vertex 40 9.1 0
      vertex 40.6123 8.97821 3
      vertex 40 9.1 3
    endloop
  endfacet
  facet normal -0.195084 -0.980787 -0
    outer loop
      vertex 40.6123 8.97821 3
      vertex 40 9.1 0
      vertex 40.6123 8.97821 0
    endloop
  endfacet
  facet normal -0.831498 -0.555528 0
    outer loop
      vertex 41.4782 8.11229 0
      vertex 41.1314 8.63137 3
      vertex 41.1314 8.63137 0
    endloop
  endfacet
  facet normal -0.831498 -0.555528 0
    outer loop
      vertex 41.1314 8.63137 3
      vertex 41.4782 8.11229 0
      vertex 41.4782 8.11229 3
    endloop
  endfacet
  facet normal -0.555557 0.831478 0
    outer loop
      vertex 41.1314 6.36863 0
      vertex 40.6123 6.02179 3
      vertex 41.1314 6.36863 3
    endloop
  endfacet
  facet normal -0.555557 0.831478 0
    outer loop
      vertex 40.6123 6.02179 3
      vertex 41.1314 6.36863 0
      vertex 40.6123 6.02179 0
    endloop
  endfacet
  facet normal -0.831498 0.555528 0
    outer loop
      vertex 41.1314 6.36863 0
      vertex 41.4782 6.88771 3
      vertex 41.4782 6.88771 0
    endloop
  endfacet
  facet normal -0.831498 0.555528 0
    outer loop
      vertex 41.4782 6.88771 3
      vertex 41.1314 6.36863 0
      vertex 41.1314 6.36863 3
    endloop
  endfacet
  facet normal -0.555557 -0.831478 0
    outer loop
      vertex 40.6123 8.97821 0
      vertex 41.1314 8.63137 3
      vertex 40.6123 8.97821 3
    endloop
  endfacet
  facet normal -0.555557 -0.831478 -0
    outer loop
      vertex 41.1314 8.63137 3
      vertex 40.6123 8.97821 0
      vertex 41.1314 8.63137 0
    endloop
  endfacet
  facet normal 0.195084 0.980787 -0
    outer loop
      vertex 40 5.9 0
      vertex 39.3877 6.02179 3
      vertex 40 5.9 3
    endloop
  endfacet
  facet normal 0.195084 0.980787 0
    outer loop
      vertex 39.3877 6.02179 3
      vertex 40 5.9 0
      vertex 39.3877 6.02179 0
    endloop
  endfacet
  facet normal 0.831498 0.555528 0
    outer loop
      vertex 38.8686 6.36863 3
      vertex 38.5218 6.88771 0
      vertex 38.5218 6.88771 3
    endloop
  endfacet
  facet normal 0.831498 0.555528 0
    outer loop
      vertex 38.5218 6.88771 0
      vertex 38.8686 6.36863 3
      vertex 38.8686 6.36863 0
    endloop
  endfacet
  facet normal 0.980783 0.195103 0
    outer loop
      vertex 38.5218 6.88771 3
      vertex 38.4 7.5 0
      vertex 38.4 7.5 3
    endloop
  endfacet
  facet normal 0.980783 0.195103 0
    outer loop
      vertex 38.4 7.5 0
      vertex 38.5218 6.88771 3
      vertex 38.5218 6.88771 0
    endloop
  endfacet
  facet normal 0.195084 -0.980787 0
    outer loop
      vertex 39.3877 8.97821 0
      vertex 40 9.1 3
      vertex 39.3877 8.97821 3
    endloop
  endfacet
  facet normal 0.195084 -0.980787 0
    outer loop
      vertex 40 9.1 3
      vertex 39.3877 8.97821 0
      vertex 40 9.1 0
    endloop
  endfacet
  facet normal -0.195084 0.980787 0
    outer loop
      vertex 40.6123 6.02179 0
      vertex 40 5.9 3
      vertex 40.6123 6.02179 3
    endloop
  endfacet
  facet normal -0.195084 0.980787 0
    outer loop
      vertex 40 5.9 3
      vertex 40.6123 6.02179 0
      vertex 40 5.9 0
    endloop
  endfacet
  facet normal 0.831498 -0.555528 0
    outer loop
      vertex 38.5218 8.11229 3
      vertex 38.8686 8.63137 0
      vertex 38.8686 8.63137 3
    endloop
  endfacet
  facet normal 0.831498 -0.555528 0
    outer loop
      vertex 38.8686 8.63137 0
      vertex 38.5218 8.11229 3
      vertex 38.5218 8.11229 0
    endloop
  endfacet
  facet normal 0.555557 0.831478 -0
    outer loop
      vertex 39.3877 6.02179 0
      vertex 38.8686 6.36863 3
      vertex 39.3877 6.02179 3
    endloop
  endfacet
  facet normal 0.555557 0.831478 0
    outer loop
      vertex 38.8686 6.36863 3
      vertex 39.3877 6.02179 0
      vertex 38.8686 6.36863 0
    endloop
  endfacet
  facet normal -0.980783 0.195103 0
    outer loop
      vertex 41.4782 6.88771 0
      vertex 41.6 7.5 3
      vertex 41.6 7.5 0
    endloop
  endfacet
  facet normal -0.980783 0.195103 0
    outer loop
      vertex 41.6 7.5 3
      vertex 41.4782 6.88771 0
      vertex 41.4782 6.88771 3
    endloop
  endfacet
  facet normal -0.831508 -0.555513 0
    outer loop
      vertex 41.4782 28.1123 0
      vertex 41.1314 28.6314 3
      vertex 41.1314 28.6314 0
    endloop
  endfacet
  facet normal -0.831508 -0.555513 0
    outer loop
      vertex 41.1314 28.6314 3
      vertex 41.4782 28.1123 0
      vertex 41.4782 28.1123 3
    endloop
  endfacet
  facet normal -0.980783 -0.1951 0
    outer loop
      vertex 41.6 27.5 0
      vertex 41.4782 28.1123 3
      vertex 41.4782 28.1123 0
    endloop
  endfacet
  facet normal -0.980783 -0.1951 0
    outer loop
      vertex 41.4782 28.1123 3
      vertex 41.6 27.5 0
      vertex 41.6 27.5 3
    endloop
  endfacet
  facet normal -0.555513 -0.831508 0
    outer loop
      vertex 40.6123 28.9782 0
      vertex 41.1314 28.6314 3
      vertex 40.6123 28.9782 3
    endloop
  endfacet
  facet normal -0.555513 -0.831508 -0
    outer loop
      vertex 41.1314 28.6314 3
      vertex 40.6123 28.9782 0
      vertex 41.1314 28.6314 0
    endloop
  endfacet
  facet normal -0.831508 0.555513 0
    outer loop
      vertex 41.1314 26.3686 0
      vertex 41.4782 26.8877 3
      vertex 41.4782 26.8877 0
    endloop
  endfacet
  facet normal -0.831508 0.555513 0
    outer loop
      vertex 41.4782 26.8877 3
      vertex 41.1314 26.3686 0
      vertex 41.1314 26.3686 3
    endloop
  endfacet
  facet normal 0.1951 -0.980783 0
    outer loop
      vertex 39.3877 28.9782 0
      vertex 40 29.1 3
      vertex 39.3877 28.9782 3
    endloop
  endfacet
  facet normal 0.1951 -0.980783 0
    outer loop
      vertex 40 29.1 3
      vertex 39.3877 28.9782 0
      vertex 40 29.1 0
    endloop
  endfacet
  facet normal 0.831508 -0.555513 0
    outer loop
      vertex 38.5218 28.1123 3
      vertex 38.8686 28.6314 0
      vertex 38.8686 28.6314 3
    endloop
  endfacet
  facet normal 0.831508 -0.555513 0
    outer loop
      vertex 38.8686 28.6314 0
      vertex 38.5218 28.1123 3
      vertex 38.5218 28.1123 0
    endloop
  endfacet
  facet normal 0.980783 -0.1951 0
    outer loop
      vertex 38.4 27.5 3
      vertex 38.5218 28.1123 0
      vertex 38.5218 28.1123 3
    endloop
  endfacet
  facet normal 0.980783 -0.1951 0
    outer loop
      vertex 38.5218 28.1123 0
      vertex 38.4 27.5 3
      vertex 38.4 27.5 0
    endloop
  endfacet
  facet normal -0.1951 0.980783 0
    outer loop
      vertex 40.6123 26.0218 0
      vertex 40 25.9 3
      vertex 40.6123 26.0218 3
    endloop
  endfacet
  facet normal -0.1951 0.980783 0
    outer loop
      vertex 40 25.9 3
      vertex 40.6123 26.0218 0
      vertex 40 25.9 0
    endloop
  endfacet
  facet normal 0.1951 0.980783 -0
    outer loop
      vertex 40 25.9 0
      vertex 39.3877 26.0218 3
      vertex 40 25.9 3
    endloop
  endfacet
  facet normal 0.1951 0.980783 0
    outer loop
      vertex 39.3877 26.0218 3
      vertex 40 25.9 0
      vertex 39.3877 26.0218 0
    endloop
  endfacet
  facet normal 0.980783 0.1951 0
    outer loop
      vertex 38.5218 26.8877 3
      vertex 38.4 27.5 0
      vertex 38.4 27.5 3
    endloop
  endfacet
  facet normal 0.980783 0.1951 0
    outer loop
      vertex 38.4 27.5 0
      vertex 38.5218 26.8877 3
      vertex 38.5218 26.8877 0
    endloop
  endfacet
  facet normal -0.1951 -0.980783 0
    outer loop
      vertex 40 29.1 0
      vertex 40.6123 28.9782 3
      vertex 40 29.1 3
    endloop
  endfacet
  facet normal -0.1951 -0.980783 -0
    outer loop
      vertex 40.6123 28.9782 3
      vertex 40 29.1 0
      vertex 40.6123 28.9782 0
    endloop
  endfacet
  facet normal -0.980783 0.1951 0
    outer loop
      vertex 41.4782 26.8877 0
      vertex 41.6 27.5 3
      vertex 41.6 27.5 0
    endloop
  endfacet
  facet normal -0.980783 0.1951 0
    outer loop
      vertex 41.6 27.5 3
      vertex 41.4782 26.8877 0
      vertex 41.4782 26.8877 3
    endloop
  endfacet
  facet normal -0.555513 0.831508 0
    outer loop
      vertex 41.1314 26.3686 0
      vertex 40.6123 26.0218 3
      vertex 41.1314 26.3686 3
    endloop
  endfacet
  facet normal -0.555513 0.831508 0
    outer loop
      vertex 40.6123 26.0218 3
      vertex 41.1314 26.3686 0
      vertex 40.6123 26.0218 0
    endloop
  endfacet
  facet normal 0.831508 0.555513 0
    outer loop
      vertex 38.8686 26.3686 3
      vertex 38.5218 26.8877 0
      vertex 38.5218 26.8877 3
    endloop
  endfacet
  facet normal 0.831508 0.555513 0
    outer loop
      vertex 38.5218 26.8877 0
      vertex 38.8686 26.3686 3
      vertex 38.8686 26.3686 0
    endloop
  endfacet
  facet normal 0.555513 -0.831508 0
    outer loop
      vertex 38.8686 28.6314 0
      vertex 39.3877 28.9782 3
      vertex 38.8686 28.6314 3
    endloop
  endfacet
  facet normal 0.555513 -0.831508 0
    outer loop
      vertex 39.3877 28.9782 3
      vertex 38.8686 28.6314 0
      vertex 39.3877 28.9782 0
    endloop
  endfacet
  facet normal 0.555513 0.831508 -0
    outer loop
      vertex 39.3877 26.0218 0
      vertex 38.8686 26.3686 3
      vertex 39.3877 26.0218 3
    endloop
  endfacet
  facet normal 0.555513 0.831508 0
    outer loop
      vertex 38.8686 26.3686 3
      vertex 39.3877 26.0218 0
      vertex 38.8686 26.3686 0
    endloop
  endfacet
endsolid OpenSCAD_Model
